#!OML:ASF H:\Pregnant\Project 1\Capture day 1\Session 1\femalepreg.ASF
:FULLY-SPECIFIED
:DEGREES
563
root 7.56381 15.628 23.1415 28.3387 -421.722 -363.8
lowerback -15.1093 -1.20823 -1.92458
upperback -8.1035 -1.66182 -0.00728767
thorax -0.0539676 -0.91214 0.832836
lowerneck -18.5209 2.9216 5.41318
upperneck 26.9253 1.32841 2.66491
head 11.9836 1.39939 0.268495
rclavicle -4.18566e-014 -2.0276e-014
rhumerus -36.0878 -31.2475 -7.56704
rradius 64.7634
rwrist -0.00125197
rhand -7.45392 -23.1439
rfingers 7.12502
rthumb 18.4342 -52.2904
lclavicle -4.18566e-014 -2.0276e-014
lhumerus -20.797 31.9703 4.80641
lradius 39.7322
lwrist 14.6872
lhand -18.2858 5.6639
lfingers 7.12502
lthumb 7.99446 35.4927
rfemur -39.418 6.73413 9.75156
rtibia 42.5762
rfoot -18.5697 -23.8901
rtoes 10.9112
lfemur -24.6324 -5.0207 -22.1779
ltibia 12.2651
lfoot -10.8029 20.9841
ltoes 5.14498
564
root 7.5834 15.634 23.1296 28.7003 -422.528 -364.028
lowerback -14.9365 -1.1638 -1.78876
upperback -8.04912 -1.62233 -0.0949106
thorax -0.0936318 -0.898181 0.673946
lowerneck -18.5685 3.07347 5.58221
upperneck 26.7217 1.52439 2.57993
head 11.9197 1.49087 0.237918
rclavicle -1.37658e-014 1.90833e-014
rhumerus -36.4069 -30.7586 -8.16316
rradius 67.3023
rwrist 0.00846647
rhand -8.13641 -23.0844
rfingers 7.12502
rthumb 17.7776 -52.2918
lclavicle -1.37658e-014 1.90833e-014
lhumerus -20.9149 31.4824 5.31126
lradius 41.7538
lwrist 15.2654
lhand -18.8043 5.4056
lfingers 7.12502
lthumb 7.4941 35.2529
rfemur -39.2482 6.66851 9.43986
rtibia 41.9935
rfoot -17.8924 -24.249
rtoes 10.5014
lfemur -24.6856 -4.78236 -22.245
ltibia 12.0745
lfoot -10.7424 21.4802
ltoes 5.51744
565
root 7.6014 15.6403 23.1172 29.0582 -423.317 -364.24
lowerback -14.7762 -1.12077 -1.67671
upperback -7.98561 -1.58042 -0.175334
thorax -0.116383 -0.882011 0.535796
lowerneck -18.611 3.21389 5.7017
upperneck 26.4889 1.71891 2.50525
head 11.843 1.57774 0.218917
rclavicle -2.72087e-014 -3.65764e-014
rhumerus -36.7362 -30.2478 -8.75371
rradius 69.9042
rwrist 0.0944294
rhand -8.94976 -23.0018
rfingers 7.12502
rthumb 16.9948 -52.2783
lclavicle -2.72087e-014 -3.65764e-014
lhumerus -21.0633 31.0292 5.87042
lradius 43.9472
lwrist 15.731
lhand -19.4312 5.04086
lfingers 7.12502
lthumb 6.88895 34.9088
rfemur -39.0892 6.67 9.09279
rtibia 41.3993
rfoot -17.0586 -24.5969
rtoes 10.2903
lfemur -24.7333 -4.56442 -22.3099
ltibia 11.8577
lfoot -10.6687 21.9677
ltoes 5.85748
566
root 7.61744 15.6471 23.1047 29.4271 -424.097 -364.443
lowerback -14.6414 -1.07422 -1.58854
upperback -7.91785 -1.52992 -0.248967
thorax -0.12058 -0.860668 0.418681
lowerneck -18.6474 3.34527 5.79525
upperneck 26.2376 1.91247 2.42287
head 11.758 1.66049 0.200959
rclavicle -9.34288e-015 1.82882e-014
rhumerus -37.0848 -29.7239 -9.33623
rradius 72.5701
rwrist 0.270234
rhand -9.88789 -22.9068
rfingers 7.12502
rthumb 16.0916 -52.2587
lclavicle -9.34288e-015 1.82882e-014
lhumerus -21.2201 30.6338 6.49406
lradius 46.2956
lwrist 16.0529
lhand -20.167 4.58376
lfingers 7.12502
lthumb 6.1786 34.4737
rfemur -38.9517 6.72543 8.71892
rtibia 40.7877
rfoot -15.9932 -24.9472
rtoes 9.95135
lfemur -24.7856 -4.36857 -22.3675
ltibia 11.625
lfoot -10.6107 22.4475
ltoes 6.2992
567
root 7.63131 15.6544 23.0913 29.8163 -424.86 -364.65
lowerback -14.5297 -1.0264 -1.50431
upperback -7.84593 -1.47636 -0.326251
thorax -0.108103 -0.837732 0.299756
lowerneck -18.6651 3.46611 5.84714
upperneck 25.9591 2.09814 2.36913
head 11.6583 1.73891 0.198675
rclavicle -2.50469e-014 7.15625e-015
rhumerus -37.4478 -29.1967 -9.93676
rradius 75.2929
rwrist 0.534549
rhand -10.9771 -22.8143
rfingers 7.12502
rthumb 15.0425 -52.2478
lclavicle -2.50469e-014 7.15625e-015
lhumerus -21.38 30.2691 7.16617
lradius 48.809
lwrist 16.2599
lhand -21.0164 4.0234
lfingers 7.12502
lthumb 5.35856 33.9356
rfemur -38.8268 6.87187 8.31498
rtibia 40.1551
rfoot -14.7971 -25.3234
rtoes 9.25201
lfemur -24.8564 -4.17457 -22.4145
ltibia 11.4009
lfoot -10.5563 22.9057
ltoes 6.74583
568
root 7.64343 15.6616 23.0776 30.239 -425.604 -364.865
lowerback -14.4392 -0.981305 -1.43678
upperback -7.78004 -1.42439 -0.387318
thorax -0.0898976 -0.814851 0.206472
lowerneck -18.6697 3.58349 5.88536
upperneck 25.6732 2.29101 2.29237
head 11.5537 1.81637 0.190861
rclavicle -4.78574e-014 -3.89618e-014
rhumerus -37.815 -28.677 -10.5466
rradius 78.0684
rwrist 0.893289
rhand -12.247 -22.6888
rfingers 7.12502
rthumb 13.819 -52.2098
lclavicle -4.78574e-014 -3.89618e-014
lhumerus -21.5758 29.8774 7.90079
lradius 51.4907
lwrist 16.4111
lhand -21.997 3.3539
lfingers 7.12502
lthumb 4.41171 33.288
rfemur -38.7235 7.06954 7.89413
rtibia 39.4975
rfoot -13.5695 -25.6324
rtoes 7.76294
lfemur -24.9679 -3.99192 -22.45
ltibia 11.2092
lfoot -10.5001 23.357
ltoes 7.13103
569
root 7.65418 15.6686 23.0631 30.7074 -426.32 -365.107
lowerback -14.3575 -0.935872 -1.37858
upperback -7.71993 -1.371 -0.43007
thorax -0.0724454 -0.790581 0.137554
lowerneck -18.6664 3.6887 5.88228
upperneck 25.3797 2.47963 2.21767
head 11.4443 1.8884 0.189646
rclavicle -1.6201e-014 -1.90833e-014
rhumerus -38.1902 -28.1655 -11.1573
rradius 80.8874
rwrist 1.3464
rhand -13.7472 -22.5096
rfingers 7.12502
rthumb 12.3728 -52.1234
lclavicle -1.6201e-014 -1.90833e-014
lhumerus -21.8037 29.4224 8.71283
lradius 54.3449
lwrist 16.5488
lhand -23.1227 2.58438
lfingers 7.12502
lthumb 3.32462 32.5382
rfemur -38.6392 7.31364 7.4733
rtibia 38.8147
rfoot -12.4409 -25.8093
rtoes 5.37363
lfemur -25.1312 -3.80345 -22.4709
ltibia 11.0698
lfoot -10.4248 23.7891
ltoes 7.36361
